<?xml version="1.0" encoding="UTF-8" standalone="no"?>
<svg
   xmlns:dc="http://purl.org/dc/elements/1.1/"
   xmlns:cc="http://creativecommons.org/ns#"
   xmlns:rdf="http://www.w3.org/1999/02/22-rdf-syntax-ns#"
   xmlns:svg="http://www.w3.org/2000/svg"
   xmlns="http://www.w3.org/2000/svg"
   xmlns:sodipodi="http://sodipodi.sourceforge.net/DTD/sodipodi-0.dtd"
   xmlns:inkscape="http://www.inkscape.org/namespaces/inkscape"
   width="684"
   height="640"
   version="1.1"
   id="svg150"
   sodipodi:docname="Pubg.svg"
   inkscape:version="0.92.1 r15371">
  <metadata
     id="metadata156">
    <rdf:RDF>
      <cc:Work
         rdf:about="">
        <dc:format>image/svg+xml</dc:format>
        <dc:type
           rdf:resource="http://purl.org/dc/dcmitype/StillImage" />
        <dc:title />
      </cc:Work>
    </rdf:RDF>
  </metadata>
  <defs
     id="defs154" />
  <sodipodi:namedview
     pagecolor="#ffffff"
     bordercolor="#666666"
     borderopacity="1"
     objecttolerance="10"
     gridtolerance="10"
     guidetolerance="10"
     inkscape:pageopacity="0"
     inkscape:pageshadow="2"
     inkscape:window-width="1920"
     inkscape:window-height="1027"
     id="namedview152"
     showgrid="false"
     inkscape:zoom="1.340625"
     inkscape:cx="342"
     inkscape:cy="454.06333"
     inkscape:window-x="-8"
     inkscape:window-y="-8"
     inkscape:window-maximized="1"
     inkscape:current-layer="svg150" />
  <style
     id="style10">.a{fill:#c6c2a3;stroke-width:1px;}.b{fill:none;stroke-linejoin:round;stroke-width:10;stroke:#000;}.c{fill-opacity:0.8;fill:none;stroke-linejoin:round;stroke-width:4;stroke:#000;}.d{fill-opacity:0.8;fill:none;stroke-linejoin:round;stroke-width:4;stroke:#929291;}.e{fill:#6a526e;stroke-linejoin:round;stroke-width:4;stroke:#000;}.f{fill:#9696ce;stroke-linejoin:round;stroke-width:4;stroke:#000;}.g{fill:#020202;stroke-width:4;stroke:#000;}.h{fill-opacity:0.8;fill:none;stroke-width:2px;stroke:#fff;}.i{fill-opacity:0.8;fill:none;stroke-linejoin:round;stroke-width:4;stroke:#69c5b3;}</style>
  <g
     transform="matrix(27.244284,0,0,24.308159,-36.483807,-51.135017)"
     id="g168">
    <g
       style="fill:#000000;stroke:none"
       transform="matrix(0.00489399,0,0,-0.00548513,0.84473339,16.837803)"
       id="g41">
      <path
         inkscape:connector-curvature="0"
         d="m 363,2487 c -78,-23 -83,-39 -83,-250 v -185 l -64,2 c -63,2 -124,-11 -98,-21 6,-3 12,-9 12,-15 0,-6 -6,-8 -14,-5 -11,4 -14,-11 -15,-72 -2,-105 12,-121 109,-121 h 70 l 1,-182 c 1,-101 1,-255 0,-343 0,-88 -1,-240 -1,-337 V 780 h -59 c -38,0 -70,-6 -90,-18 -31,-17 -31,-17 -30,-101 1,-77 3,-86 27,-108 24,-22 31,-24 89,-17 l 63,6 1,-28 c 1,-16 2,-95 3,-176 1,-141 2,-147 26,-173 14,-15 33,-31 43,-37 21,-11 391,-23 722,-23 163,0 680,11 703,15 1,0 2,8 3,18 0,13 2,14 6,2 3,-8 11,-18 16,-22 6,-4 238,-7 515,-8 448,0 504,1 498,15 -3,9 0,15 10,15 8,0 13,-4 10,-9 -3,-5 1,-12 9,-15 22,-8 853,-8 866,0 6,4 15,1 19,-6 6,-10 32,-11 111,-5 123,8 161,22 189,67 18,30 20,50 20,205 v 171 l 61,-2 c 71,-3 109,2 109,16 0,5 -5,6 -11,2 -7,-4 -10,-1 -7,7 3,8 11,13 17,12 7,-2 11,23 11,77 0,62 -3,82 -15,86 -8,4 -13,10 -10,14 6,10 -46,20 -111,20 h -54 l 3,445 c 1,245 -1,445 -4,445 -3,0 -6,34 -7,75 l -2,75 h 73 c 60,0 79,4 101,21 25,20 27,25 25,99 -2,60 -6,77 -16,73 -7,-3 -13,2 -13,12 0,10 5,14 13,9 9,-6 9,-4 0,6 -9,10 -38,14 -93,13 -44,-1 -82,2 -84,6 -3,4 -6,68 -7,142 -3,234 -21,269 -142,274 -40,2 -121,8 -182,14 -105,10 -802,8 -1015,-3 -52,-2 -99,-4 -105,-4 -5,0 -153,3 -327,5 -282,3 -317,2 -312,-12 4,-8 1,-15 -5,-15 -6,0 -11,7 -11,15 0,13 -27,15 -181,15 -157,0 -180,-2 -175,-15 3,-9 0,-15 -10,-15 -10,0 -14,6 -10,15 5,13 -36,15 -333,15 -186,0 -445,2 -577,5 -172,3 -251,1 -281,-8 z m 3384,-236 41,-1 6,-112 c 3,-62 8,-490 10,-950 l 4,-838 h -26 c -15,0 -417,0 -894,0 -772,0 -868,-1 -868,-15 0,-8 -7,-15 -15,-15 -9,0 -12,6 -8,16 5,14 -49,15 -604,12 -335,-3 -616,-9 -623,-13 -9,-5 -15,-4 -18,3 -2,8 -39,12 -118,12 H 520 v 70 c 0,56 -3,70 -15,70 -8,0 -15,7 -15,15 0,8 6,12 15,9 12,-5 15,52 17,433 2,283 -1,441 -7,446 -7,6 -6,10 2,13 8,4 10,78 7,282 -3,152 -8,293 -11,312 -4,19 -5,40 -3,45 2,6 5,53 6,105 2,52 3,97 3,100 1,4 2928,4 3228,1 z"
         id="path31" />
      <path
         inkscape:connector-curvature="0"
         d="m 2435,2032 -146,-3 2,-285 c 3,-241 1,-287 -11,-295 -8,-5 -10,-9 -5,-9 6,0 2,-5 -7,-11 -27,-15 -25,-132 2,-176 18,-30 20,-52 20,-328 1,-173 5,-297 11,-300 5,-4 9,-11 9,-16 0,-6 -5,-7 -11,-3 -7,4 -10,-1 -7,-12 3,-18 17,-19 233,-19 227,0 230,0 264,24 57,41 60,57 61,383 0,256 -2,297 -15,308 -9,7 -25,26 -36,41 l -19,28 24,26 c 31,33 34,61 32,364 l -1,244 -25,19 c -29,21 -108,25 -375,20 z m 188,-206 c 3,-8 3,-24 0,-36 -4,-13 0,-26 8,-31 10,-6 10,-9 2,-9 -9,0 -12,-37 -12,-142 0,-79 -1,-147 -2,-153 -1,-5 -1,-13 -1,-16 1,-3 -18,-2 -41,2 -23,4 -48,8 -54,9 -9,0 -13,18 -13,54 0,30 -5,67 -10,82 -6,15 -7,30 -3,33 5,3 9,20 9,36 0,17 1,65 2,108 l 2,77 h 54 c 37,0 56,-4 59,-14 z m -9,-597 c 7,-7 11,-444 3,-455 -6,-10 -89,-10 -105,0 -8,5 -5,429 3,454 4,12 87,13 99,1 z"
         id="path33" />
      <path
         inkscape:connector-curvature="0"
         d="m 3063,2028 c -12,-7 -32,-26 -45,-43 -23,-29 -23,-32 -21,-265 1,-129 1,-300 0,-380 0,-80 -1,-266 -1,-415 l -1,-270 25,-33 c 36,-48 70,-54 285,-50 171,3 193,5 217,23 15,11 31,30 37,43 13,27 19,753 7,790 -7,21 -12,22 -130,22 h -123 l -7,-37 c -3,-21 -6,-63 -6,-94 0,-50 3,-57 25,-67 19,-9 25,-20 26,-44 0,-18 2,-105 3,-193 2,-88 6,-170 10,-182 4,-12 2,-32 -4,-43 -10,-18 -19,-20 -75,-17 -36,2 -67,6 -70,8 -2,3 0,23 6,44 8,28 9,181 5,500 -4,253 -8,471 -9,485 -2,24 0,25 76,28 l 77,3 v -61 c 0,-40 4,-60 12,-60 9,0 9,-3 0,-12 -7,-7 -12,-16 -12,-20 0,-11 177,-10 184,0 3,5 6,72 8,150 l 3,142 -28,27 -27,28 -213,3 c -156,1 -218,-1 -234,-10 z"
         id="path35" />
      <path
         inkscape:connector-curvature="0"
         d="m 787,2023 c -4,-3 -7,-149 -7,-324 0,-245 -3,-318 -12,-321 -9,-3 -14,-34 -16,-96 -4,-90 -3,-92 25,-116 19,-17 24,-28 17,-33 -15,-10 -19,-533 -5,-533 5,0 12,-8 16,-19 4,-15 16,-19 67,-20 80,-2 128,8 128,25 0,8 4,14 10,14 6,0 8,103 5,280 l -4,280 h 133 c 147,0 190,12 207,57 11,30 16,729 5,761 -16,46 -45,51 -313,52 -137,0 -252,-3 -256,-7 z m 343,-210 c 1,-10 1,-101 1,-203 1,-102 3,-179 6,-172 9,23 23,12 23,-19 0,-23 -4,-30 -14,-26 -10,4 -13,1 -10,-7 8,-21 -102,-21 -123,0 -14,13 -14,19 -4,36 10,16 11,63 6,203 -4,101 -4,188 -1,194 4,6 32,11 62,11 45,0 54,-3 54,-17 z"
         id="path37" />
      <path
         inkscape:connector-curvature="0"
         d="m 1520,1920 c 0,-93 2,-109 15,-104 9,4 15,0 15,-10 0,-9 -6,-13 -13,-10 -12,4 -15,-90 -20,-543 -6,-598 -4,-630 44,-664 26,-18 42,-19 257,-15 245,4 266,8 294,60 16,30 30,594 22,926 -3,151 -5,300 -4,330 1,71 -9,128 -20,111 -4,-8 -13,-10 -19,-7 -6,4 -9,12 -6,17 4,5 -26,9 -70,9 -117,0 -110,21 -110,-334 0,-166 2,-366 5,-446 3,-80 2,-146 -2,-148 -13,-6 -9,-40 5,-45 8,-4 8,-8 2,-14 -5,-4 -11,-62 -13,-128 -2,-65 -8,-125 -14,-132 -15,-18 -42,-17 -34,2 7,18 -34,21 -66,4 -15,-8 -23,-8 -31,0 -8,8 -10,186 -9,609 1,328 -1,602 -5,607 -20,25 -58,35 -138,35 h -85 z"
         id="path39" />
    </g>
  </g>
</svg>
