<?xml version="1.0" encoding="UTF-8" standalone="no"?>
<svg
   xmlns:dc="http://purl.org/dc/elements/1.1/"
   xmlns:cc="http://creativecommons.org/ns#"
   xmlns:rdf="http://www.w3.org/1999/02/22-rdf-syntax-ns#"
   xmlns:svg="http://www.w3.org/2000/svg"
   xmlns="http://www.w3.org/2000/svg"
   xmlns:sodipodi="http://sodipodi.sourceforge.net/DTD/sodipodi-0.dtd"
   xmlns:inkscape="http://www.inkscape.org/namespaces/inkscape"
   width="684"
   height="640"
   version="1.1"
   id="svg150"
   sodipodi:docname="VirtusPro.svg"
   inkscape:version="0.92.1 r15371">
  <metadata
     id="metadata156">
    <rdf:RDF>
      <cc:Work
         rdf:about="">
        <dc:format>image/svg+xml</dc:format>
        <dc:type
           rdf:resource="http://purl.org/dc/dcmitype/StillImage" />
        <dc:title />
      </cc:Work>
    </rdf:RDF>
  </metadata>
  <defs
     id="defs154" />
  <sodipodi:namedview
     pagecolor="#ffffff"
     bordercolor="#666666"
     borderopacity="1"
     objecttolerance="10"
     gridtolerance="10"
     guidetolerance="10"
     inkscape:pageopacity="0"
     inkscape:pageshadow="2"
     inkscape:window-width="1920"
     inkscape:window-height="1027"
     id="namedview152"
     showgrid="false"
     inkscape:zoom="1.340625"
     inkscape:cx="342"
     inkscape:cy="334.71601"
     inkscape:window-x="-8"
     inkscape:window-y="-8"
     inkscape:window-maximized="1"
     inkscape:current-layer="g168" />
  <style
     id="style10">.a{fill:#c6c2a3;stroke-width:1px;}.b{fill:none;stroke-linejoin:round;stroke-width:10;stroke:#000;}.c{fill-opacity:0.8;fill:none;stroke-linejoin:round;stroke-width:4;stroke:#000;}.d{fill-opacity:0.8;fill:none;stroke-linejoin:round;stroke-width:4;stroke:#929291;}.e{fill:#6a526e;stroke-linejoin:round;stroke-width:4;stroke:#000;}.f{fill:#9696ce;stroke-linejoin:round;stroke-width:4;stroke:#000;}.g{fill:#020202;stroke-width:4;stroke:#000;}.h{fill-opacity:0.8;fill:none;stroke-width:2px;stroke:#fff;}.i{fill-opacity:0.8;fill:none;stroke-linejoin:round;stroke-width:4;stroke:#69c5b3;}</style>
  <path
     d="M35.7 353.1C35.7 353.1 52.8 353.1 58.3 352.1 63.8 351.1 66.8 348.6 66.8 348.6"
     class="h"
     id="path118" />
  <path
     d="M64 225.5C69.1 225.5 68.6 232.2 68.6 232.2L68.6 254.7C68.6 254.7 68.6 258.3 65.5 258.8 62.5 259.3 59.4 255.2 59.4 255.2L60.4 229.1C60.4 229.1 60.4 225.5 64 225.5z"
     style="fill:#fefefe;stroke-width:1px"
     id="path122" />
  <path
     d="M32.1 134.8A1.9 2.4 0 1 1 32.1 134.5L30.2 134.8z"
     style="fill:#fefefe;opacity:0;stroke-linejoin:round;stroke-width:2"
     id="path124" />
  <path
     d="M32.4 134.4A2.4 2.6 0 1 1 27.5 134.4 2.4 2.6 0 1 1 32.4 134.4z"
     style="fill:#fefefe;stroke-linejoin:round;stroke-width:2"
     id="path126" />
  <path
     d="M573.7 196.8C573.7 196.8 583.5 190.2 599.8 195.7 616.1 201.1 615 207.1 615 207.1"
     style="fill-opacity:0.8;fill:none;stroke-linejoin:round;stroke-width:2;stroke:#fff"
     id="path144" />
  <path
     d="M38.5 316.9C38.5 316.9 49.4 318.9 60.2 317.4 71 316 80.4 306.1 80.4 306.1"
     class="h"
     id="path146" />
  <path
     d="M74 291.4C74 291.4 73 299.7 78.9 303.7 84.8 307.6 87.7 307.1 87.7 307.1 87.7 307.1 81.3 306.6 79.9 311.5 78.4 316.5 78.4 324.8 78.4 324.8"
     class="h"
     id="path148" />
  <g
     transform="matrix(27.244284,0,0,24.308159,-18.581709,-1.1583264)"
     id="g168">
    <path
       inkscape:connector-curvature="0"
       style="fill:#060403;stroke-width:0.05086877"
       d="M 25.786102,3.6306694 C 25.483255,3.458672 25.170477,3.2866743 24.847771,3.140737 24.386053,2.9114071 23.91937,2.687289 23.447722,2.4735952 23.323603,2.4266868 23.199485,2.3693542 23.080332,2.3172337 22.995932,2.2755374 22.901603,2.244265 22.81224,2.2025687 22.444849,2.0566314 22.07746,1.8898459 21.700143,1.7699689 21.630631,1.7439092 21.566099,1.7126364 21.496589,1.6865767 21.471764,1.6761494 21.417145,1.6709403 21.387365,1.660517 20.801528,1.436398 20.200798,1.2435525 19.595104,1.0611307 19.540494,1.0454943 19.485879,1.0298579 19.421339,1.0142225 17.912064,0.57119829 16.373004,0.25326346 14.809117,0.11775023 13.488502,-0.01255097 12.157961,0.04999365 10.847276,0.206355 9.5812729,0.3783526 8.3301659,0.64937897 7.0939513,1.0090102 6.3740678,1.207068 5.6690783,1.4520339 4.9740183,1.7074243 4.874724,1.7386966 4.7605355,1.780393 4.6612412,1.8220893 4.2839229,1.9628148 3.9264635,2.1087518 3.5590745,2.2651133 3.4597803,2.3068096 3.3555212,2.348506 3.2562269,2.3954145 2.3824371,2.7654697 1.5136121,3.1563732 0.68450463,3.6254574 1.7022712,5.4496735 2.7001789,7.2843137 3.708016,9.1189546 3.732839,9.1762896 3.802345,9.2440432 3.752697,9.306588 3.5789326,9.61931 3.4250264,9.9320331 3.2860144,10.260392 c 0.064542,0.244967 0.1787297,0.474297 0.243271,0.729686 -0.024823,0.255391 -0.1539061,0.484721 -0.2829887,0.703626 -0.2730593,0.510781 -0.5858364,1.000714 -0.7744957,1.558403 -0.079436,0.22933 -0.1191533,0.469084 -0.1787296,0.698413 -0.1638356,0.667143 -0.4666832,1.287376 -0.6503777,1.944094 -0.079436,0.312723 -0.1340467,0.667142 0,0.969441 0.1340469,0.338784 0.3028477,0.667141 0.5560482,0.912109 0.1241172,0.140724 0.3227064,0.104243 0.4617184,0.20327 0.4517892,0.260602 0.8042838,0.672354 1.2113904,1.000712 0.5461187,0.427387 1.1269902,0.854775 1.7823326,1.06847 0.2184475,0.05732 0.4517891,0.130301 0.6801659,0.05732 0.3922125,-0.104244 0.7645662,-0.25539 1.131955,-0.411752 0.0844,-0.0417 0.1737651,-0.07296 0.2680946,-0.114672 0.4517895,-0.203269 0.8936491,-0.453448 1.3305435,-0.698413 0.173765,0.239755 0.2978835,0.515992 0.4468248,0.771383 L 12.490595,25.0678 c 0.243272,0.443025 0.486544,0.896473 0.734778,1.339497 0.322707,-0.58896 0.655344,-1.167498 0.963155,-1.766884 l 3.92709,-7.124868 c 2.571723,-4.617863 5.113655,-9.251373 7.670484,-13.884882 z"
       id="path53" />
    <path
       inkscape:connector-curvature="0"
       style="fill:#f05e07;stroke-width:0.05086877"
       d="m 5.396019,3.1146769 c 2.4873222,-1.0007129 5.113657,-1.7147632 7.784673,-1.7460356 2.288733,0 4.567538,0.5264167 6.732154,1.2977996 1.305719,0.4742961 2.596544,1.026773 3.817864,1.7095512 C 23.432826,4.9024088 23.149839,5.4340374 22.856921,5.960454 21.834189,5.7050638 20.806494,5.4444614 19.783762,5.1994953 19.525597,5.1317388 19.267432,5.0848303 19.019196,4.9962256 19.138348,4.7929558 19.267432,4.594898 19.45609,4.4437486 18.051077,3.9277561 16.561662,3.7296984 15.087143,3.6306694 14.680035,3.3492188 14.228246,3.1459492 13.81121,2.8749227 13.443821,2.6612288 12.996997,2.457959 12.574997,2.6143204 12.162927,2.786318 11.919653,3.2032817 11.701208,3.5837611 10.723158,3.8287272 9.7699327,4.1831464 8.8564254,4.6261704 8.7472015,4.5115053 8.6280484,4.3812041 8.4592485,4.3812041 8.052141,4.3395077 7.6549642,4.4645969 7.2726811,4.594898 7.084022,4.6522305 6.9301159,4.7929558 6.8208922,4.9545292 6.5478328,5.3558566 6.4286796,5.8353648 6.3144912,6.299237 5.7286549,6.7891695 5.1974304,7.3416463 4.7108883,7.9410316 4.0456165,6.7578972 3.4051682,5.5695506 2.7498259,4.3812041 3.5987922,3.8860598 4.4974056,3.4951562 5.396019,3.1146769 Z"
       id="path55" />
    <path
       inkscape:connector-curvature="0"
       style="fill:#fdfdfd;stroke-width:0.05086877"
       d="m 12.331725,3.7661826 c 0.124115,-0.1719974 0.297884,-0.3700553 0.526261,-0.338783 0.268094,0.041696 0.501436,0.1719975 0.749671,0.2710266 0.367389,0.1615733 0.764567,0.3127227 1.032661,0.6306575 0.134041,0.1563614 0.134041,0.3856913 0.0844,0.5837492 -0.06454,0.2397541 -0.173766,0.469084 -0.233342,0.703626 -0.139011,0.5159927 -0.17873,1.0684696 -0.139011,1.6000984 0.01489,0.1824215 0.0844,0.3439949 0.163834,0.5003564 -0.02482,-0.4169637 0.04468,-0.8287154 0.148942,-1.230043 0.153906,-0.6098094 0.357458,-1.1987706 0.570943,-1.7825196 0.893649,0.099029 1.782332,0.2293299 2.651157,0.4430239 -0.248237,0.1250887 -0.461718,0.3179347 -0.625555,0.5420527 0.992943,0.338783 2.000781,0.6462936 2.993724,0.9850767 -0.109219,0.1250888 -0.218447,0.2553902 -0.327672,0.3856914 0.635483,0.2449662 1.275932,0.4742962 1.916381,0.7244745 -1.563886,2.8405657 -3.127771,5.6863427 -4.691655,8.5269087 -0.203555,-0.08338 -0.422001,-0.125087 -0.640449,-0.156362 -1.320615,-0.06775 -2.705769,-0.01043 -3.907229,0.630658 0.153904,0.25539 0.327669,0.500355 0.48654,0.755746 -0.908542,0.125087 -1.846874,0.286663 -2.656122,0.771384 -0.02482,-0.0417 -0.06454,-0.114672 -0.07944,-0.156363 0.625554,-0.343995 1.261036,-0.703626 1.956096,-0.839139 -0.07944,-0.187633 -0.193623,-0.35963 -0.357458,-0.474296 0.491507,-0.396116 1.072378,-0.646293 1.658214,-0.83914 0.948261,-0.302299 1.931274,-0.453448 2.924217,-0.510781 0.35746,-0.343994 0.704989,-0.724473 0.923437,-1.188345 0.173766,-0.359632 0.24327,-0.771383 0.258165,-1.172711 0.0099,-0.302299 0.02979,-0.625446 -0.05462,-0.917321 -0.193626,-0.771382 -0.610662,-1.454161 -1.032661,-2.11609 0.139011,0.787019 0.312776,1.568826 0.431929,2.355845 0.0844,0.515992 -0.09433,1.058045 -0.412071,1.454161 -0.27306,0.328359 -0.61066,0.609809 -0.983013,0.787018 -0.570943,0.125087 -1.146851,0.22933 -1.712828,0.401328 -0.839035,0.25539 -1.688002,0.526417 -2.432709,1.01635 -0.193624,0.1303 -0.377319,0.286661 -0.541153,0.469083 0.07944,0.05732 0.153905,0.114672 0.24327,0.161573 -1.211391,0.896473 -2.4724283,1.740824 -3.8327601,2.387118 -0.3376005,0.156363 -0.6702364,0.302299 -1.0227311,0.411753 -0.2432711,0.03127 -0.4915068,0.03127 -0.7447073,0.01043 -0.1489287,-0.01559 -0.2184347,-0.161533 -0.3276584,-0.255352 0.506401,-0.02606 0.9830136,-0.22933 1.4447321,-0.432599 0.6503776,-0.297087 1.2362139,-0.729687 1.7376497,-1.256102 0.6156248,-0.667144 1.1319549,-1.428101 1.7426151,-2.100456 0.615624,-0.682778 1.350403,-1.266527 2.189438,-1.631371 0.600732,-0.28145 1.295792,-0.416963 1.94617,-0.224118 -0.36739,-0.797442 -0.680167,-1.626157 -1.131956,-2.37148 0.36739,0.28145 0.695061,0.58896 1.047556,0.886047 -0.461719,-0.646293 -0.948261,-1.287374 -1.573815,-1.766883 -0.287955,-0.239754 -0.680166,-0.343995 -1.03266,-0.224119 -0.695062,0.244967 -1.275933,0.745323 -1.8220509,1.240467 0.5014359,-0.286662 1.0326599,-0.526416 1.5887099,-0.646293 -0.397179,0.198058 -0.789391,0.416964 -1.117061,0.724473 -0.6652739,0.599387 -1.1468508,1.396831 -1.5092745,2.225545 -0.2680944,0.599385 -0.4468248,1.230044 -0.709954,1.829428 -0.3822834,0.880836 -0.7744957,1.756461 -1.3305438,2.538267 -0.2680946,0.396115 -0.6900953,0.630658 -1.1319549,0.724475 -0.2482359,0.03127 -0.506401,0.02606 -0.7645661,0 C 4.5718775,18.401659 4.3087477,17.901302 4.35343,17.369673 4.4527245,17.05695 4.7853603,16.916225 5.0633843,16.884953 5.1080655,16.410606 4.8598298,15.967582 4.5172645,15.680921 4.298817,15.550619 4.0257578,15.566256 3.7824867,15.57668 3.236368,15.618377 2.7101084,15.77995 2.1937779,15.962371 2.2235662,15.534984 2.4221548,15.149292 2.5462728,14.747965 2.7746496,14.122519 2.9037322,13.460589 3.2115445,12.866416 3.514392,12.209698 3.9612164,11.641585 4.3583937,11.052623 4.3484642,10.724264 4.1796638,10.437602 4.0158284,10.166575 4.6413823,9.051197 5.5151722,8.1130292 6.423715,7.2530415 7.6897173,6.0229985 9.3231078,5.2411919 11.03097,4.9962256 10.896928,5.496582 10.743017,5.9969383 10.584146,6.4920827 11.140194,5.5695506 11.681348,4.6365944 12.331725,3.7661826 Z"
       id="path57" />
    <path
       inkscape:connector-curvature="0"
       style="fill:#060403;stroke-width:0.05086877"
       d="m 11.835255,6.8360778 c 0.193622,-1.011137 0.749671,-1.8867606 1.350402,-2.6737796 0.397176,0.1563613 0.868825,0.338783 1.032659,0.787019 0.08441,0.3856912 -0.109219,0.7557466 -0.287952,1.0736813 -0.04468,-0.2970865 -0.09433,-0.6879901 -0.407107,-0.8026549 -0.258166,-0.041697 -0.466682,0.1459371 -0.650378,0.3179347 -0.392213,0.3856914 -0.700024,0.8547756 -1.037624,1.2977995 z"
       id="path59" />
    <path
       inkscape:connector-curvature="0"
       style="fill:#060403;stroke-width:0.05086877"
       d="M 5.952067,10.823293 C 7.3272932,10.307301 8.4791071,9.306588 9.5167328,8.2537544 9.1592731,8.7697468 8.8365668,9.3274356 8.3847767,9.7652484 7.8386587,10.234332 7.237928,10.625236 6.6024446,10.948383 6.875504,11.1725 7.2577869,11.146441 7.5655993,11.005707 7.9180941,10.864982 8.1762595,10.536624 8.3003767,10.176992 h 0.029789 c 0.014888,-0.08338 0,-0.1876342 0.064541,-0.2553907 0.00992,0.099024 0.014888,0.1980577 -0.029789,0.2814517 C 8.2408007,10.578321 8.0223529,10.93274 7.694682,11.146433 7.3918343,11.334067 7.0443043,11.41746 6.7116684,11.542549 6.0315024,12.115874 5.5449605,12.923741 5.2272187,13.768093 5.3761601,13.226045 5.5648192,12.683992 5.8229846,12.194059 5.9967495,11.8657 6.2052674,11.563401 6.4783269,11.334071 6.125832,11.078682 5.6790077,11.05262 5.2669365,11.104741 5.4754544,10.984862 5.708796,10.891047 5.952067,10.82329 Z"
       id="path61" />
    <path
       inkscape:connector-curvature="0"
       style="fill:#fdfdfd;stroke-width:0.05086877"
       d="m 10.49478,12.095033 c 0.342566,-0.35442 0.759602,-0.641082 1.221321,-0.787018 0.377319,-0.03127 0.724848,0.161573 0.983013,0.432598 -0.07944,0.396116 -0.188658,0.781808 -0.273058,1.172711 -0.422002,-0.0469 -0.88372,-0.0886 -1.236214,-0.359631 0.119151,0.255389 0.07944,0.542053 -0.0099,0.797442 -0.327672,0.03127 -0.695061,0.07296 -0.963155,-0.171997 0.05462,0.370055 -0.06454,0.745323 -0.228377,1.06847 -0.2829881,0.03127 -0.561013,-0.05733 -0.814214,-0.187634 0.3425661,-0.719263 0.7546378,-1.407252 1.320613,-1.964941 z"
       id="path63" />
    <path
       inkscape:connector-curvature="0"
       style="fill:#fdfdfd;stroke-width:0.05086877"
       d="m 12.932455,12.251394 c 0.01489,0 0.04468,0.01564 0.06951,0.01564 0.109219,0.281451 0.173765,0.573323 0.228377,0.87041 -0.213483,0.01564 -0.412072,0.0469 -0.625554,0.07296 -0.02482,-0.349205 0.09434,-0.703625 0.32767,-0.959016 z"
       id="path65" />
    <path
       inkscape:connector-curvature="0"
       style="fill:#fdfdfd;stroke-width:0.05086877"
       d="m 11.448006,13.033202 c 0.327672,-0.01043 0.650378,0.07296 0.938332,0.229329 -0.36739,0.0886 -0.719884,0.239754 -1.037626,0.4326 0.02978,-0.218907 0.06454,-0.443024 0.0993,-0.661929 z"
       id="path67" />
    <path
       inkscape:connector-curvature="0"
       style="fill:#fdfdfd;stroke-width:0.05086877"
       d="m 10.266406,14.539483 c -0.0099,-0.343996 0.02977,-0.687991 0.13901,-1.01635 0.282989,0.01043 0.541154,0.125086 0.779461,0.271027 -1.06245,0.802656 -1.772404,1.98579 -2.5866167,3.043835 -0.4220008,0.557689 -0.9383314,1.042409 -1.5092736,1.4281 0.4368949,-0.526416 0.7893897,-1.115377 1.0872728,-1.740823 0.1191532,-0.01564 0.2333411,-0.03127 0.3524943,-0.0417 -0.044678,-0.130301 -0.094331,-0.271027 -0.094331,-0.411752 -0.01489,-0.198056 0.094331,-0.370055 0.1539065,-0.552476 0.2283771,0.01044 0.4517889,0.01044 0.6702367,0.0469 -0.01489,-0.343996 0.039715,-0.68799 0.1092193,-1.026773 0.2879532,-0.104244 0.6106598,-0.08861 0.8986137,0 z"
       id="path69" />
    <path
       inkscape:connector-curvature="0"
       style="fill:#fdfdfd;stroke-width:0.05086877"
       d="m 8.6776951,15.279593 c 0.1191531,-0.343996 0.2581651,-0.682777 0.4071074,-1.01635 0.039715,0.317936 0.014889,0.641083 -0.024826,0.959018 -0.059578,0.156361 -0.2631292,0.05211 -0.3822824,0.05732 z"
       id="path71" />
  </g>
</svg>
